<svg xmlns="http://www.w3.org/2000/svg" width="49" height="48" viewBox="0 0 49 48" fill="none">
  <path d="M18.5 19.5C18.2033 19.5 17.9133 19.412 17.6666 19.2472C17.42 19.0824 17.2277 18.8481 17.1142 18.574C17.0006 18.2999 16.9709 17.9983 17.0288 17.7074C17.0867 17.4164 17.2296 17.1491 17.4393 16.9393C17.6491 16.7296 17.9164 16.5867 18.2074 16.5288C18.4983 16.4709 18.7999 16.5006 19.074 16.6142C19.3481 16.7277 19.5824 16.92 19.7472 17.1666C19.912 17.4133 20 17.7033 20 18C20 18.3978 19.842 18.7794 19.5607 19.0607C19.2794 19.342 18.8978 19.5 18.5 19.5ZM30.5 28.5C30.2033 28.5 29.9133 28.588 29.6666 28.7528C29.42 28.9176 29.2277 29.1519 29.1142 29.426C29.0006 29.7001 28.9709 30.0017 29.0288 30.2926C29.0867 30.5836 29.2296 30.8509 29.4393 31.0607C29.6491 31.2704 29.9164 31.4133 30.2074 31.4712C30.4983 31.5291 30.7999 31.4994 31.074 31.3858C31.3481 31.2723 31.5824 31.08 31.7472 30.8334C31.912 30.5867 32 30.2967 32 30C32 29.6022 31.842 29.2206 31.5607 28.9393C31.2794 28.658 30.8978 28.5 30.5 28.5ZM45.5 24C45.5 25.9575 44.0919 27.4256 42.8488 28.7212C42.1419 29.46 41.4106 30.2213 41.135 30.8906C40.88 31.5037 40.865 32.52 40.85 33.5044C40.8219 35.3344 40.7919 37.4081 39.35 38.85C37.9081 40.2919 35.8344 40.3219 34.0044 40.35C33.02 40.365 32.0037 40.38 31.3906 40.635C30.7213 40.9106 29.96 41.6419 29.2212 42.3488C27.9256 43.5919 26.4575 45 24.5 45C22.5425 45 21.0744 43.5919 19.7787 42.3488C19.04 41.6419 18.2787 40.9106 17.6094 40.635C16.9963 40.38 15.98 40.365 14.9956 40.35C13.1656 40.3219 11.0919 40.2919 9.65 38.85C8.20812 37.4081 8.17812 35.3344 8.15 33.5044C8.135 32.52 8.12 31.5037 7.865 30.8906C7.58937 30.2213 6.85812 29.46 6.15125 28.7212C4.90812 27.4256 3.5 25.9575 3.5 24C3.5 22.0425 4.90812 20.5744 6.15125 19.2787C6.85812 18.54 7.58937 17.7787 7.865 17.1094C8.12 16.4963 8.135 15.48 8.15 14.4956C8.17812 12.6656 8.20812 10.5919 9.65 9.15C11.0919 7.70812 13.1656 7.67812 14.9956 7.65C15.98 7.635 16.9963 7.62 17.6094 7.365C18.2787 7.08937 19.04 6.35812 19.7787 5.65125C21.0744 4.40812 22.5425 3 24.5 3C26.4575 3 27.9256 4.40812 29.2212 5.65125C29.96 6.35812 30.7213 7.08937 31.3906 7.365C32.0037 7.62 33.02 7.635 34.0044 7.65C35.8344 7.67812 37.9081 7.70812 39.35 9.15C40.7919 10.5919 40.8219 12.6656 40.85 14.4956C40.865 15.48 40.88 16.4963 41.135 17.1094C41.4106 17.7787 42.1419 18.54 42.8488 19.2787C44.0919 20.5744 45.5 22.0425 45.5 24ZM18.5 22.5C19.39 22.5 20.26 22.2361 21.0001 21.7416C21.7401 21.2471 22.3169 20.5443 22.6575 19.7221C22.9981 18.8998 23.0872 17.995 22.9135 17.1221C22.7399 16.2492 22.3113 15.4474 21.682 14.818C21.0526 14.1887 20.2508 13.7601 19.3779 13.5865C18.505 13.4128 17.6002 13.5019 16.7779 13.8425C15.9557 14.1831 15.2529 14.7599 14.7584 15.4999C14.2639 16.24 14 17.11 14 18C14 19.1935 14.4741 20.3381 15.318 21.182C16.1619 22.0259 17.3065 22.5 18.5 22.5ZM33.0613 17.5613C33.2006 17.4219 33.3112 17.2564 33.3866 17.0743C33.462 16.8923 33.5008 16.6971 33.5008 16.5C33.5008 16.3029 33.462 16.1077 33.3866 15.9257C33.3112 15.7436 33.2006 15.5781 33.0613 15.4387C32.9219 15.2994 32.7564 15.1888 32.5743 15.1134C32.3923 15.038 32.1971 14.9992 32 14.9992C31.8029 14.9992 31.6077 15.038 31.4257 15.1134C31.2436 15.1888 31.0781 15.2994 30.9387 15.4387L15.9387 30.4387C15.7994 30.5781 15.6888 30.7436 15.6134 30.9257C15.538 31.1077 15.4992 31.3029 15.4992 31.5C15.4992 31.6971 15.538 31.8923 15.6134 32.0743C15.6888 32.2564 15.7994 32.4219 15.9387 32.5613C16.2202 32.8427 16.602 33.0008 17 33.0008C17.1971 33.0008 17.3923 32.962 17.5743 32.8866C17.7564 32.8112 17.9219 32.7006 18.0613 32.5613L33.0613 17.5613ZM35 30C35 29.11 34.7361 28.24 34.2416 27.4999C33.7471 26.7599 33.0443 26.1831 32.2221 25.8425C31.3998 25.5019 30.495 25.4128 29.6221 25.5865C28.7492 25.7601 27.9474 26.1887 27.318 26.818C26.6887 27.4474 26.2601 28.2492 26.0865 29.1221C25.9128 29.995 26.0019 30.8998 26.3425 31.7221C26.6831 32.5443 27.2599 33.2471 27.9999 33.7416C28.74 34.2361 29.61 34.5 30.5 34.5C31.6935 34.5 32.8381 34.0259 33.682 33.182C34.5259 32.3381 35 31.1935 35 30Z" fill="#8F4CFD"/>
</svg>
