<svg xmlns="http://www.w3.org/2000/svg" width="49" height="48" viewBox="0 0 49 48" fill="none">
  <path
    d="M46.405 21.9573C46.7573 25.7395 46.1245 29.5485 44.5682 33.0136C43.0119 36.4786 40.585 39.4817 37.5239 41.7304C34.4627 43.9791 30.8716 45.3969 27.0999 45.8458C23.3283 46.2947 19.5047 45.7593 16.0013 44.2919L9.05152 47.3493C8.47613 47.6025 7.84158 47.6905 7.21901 47.6033C6.59643 47.5162 6.01043 47.2573 5.52668 46.8558C5.04293 46.4543 4.68055 45.926 4.48016 45.3301C4.27976 44.7341 4.24928 44.0942 4.39211 43.4819L6.11617 36.0871C4.28055 33.2942 3.10525 30.1198 2.67948 26.8049C2.2537 23.49 2.58865 20.1216 3.65889 16.9555C4.72914 13.7893 6.50655 10.9087 8.85621 8.53211C11.2059 6.15557 14.066 4.34561 17.2196 3.23961C20.3731 2.13362 23.7372 1.76067 27.0564 2.14906C30.3756 2.53745 33.5628 3.67698 36.3759 5.48115C39.1891 7.28532 41.5543 9.70671 43.292 12.5615C45.0297 15.4164 46.0943 18.6296 46.405 21.9573Z"
    fill="#53C95A"/>
  <path
    d="M20.2597 35.8749C21.0156 39.4714 27.0625 39.1244 28.6057 36.3481C28.8576 35.8749 28.1333 35.4016 27.8498 35.938C26.653 38.1148 21.6455 38.5565 21.0471 35.6856C20.9526 35.0861 20.1337 35.3385 20.2597 35.8749Z"
    fill="black"/>
  <path
    d="M20.2597 35.8749C21.0156 39.4714 27.0625 39.1244 28.6057 36.3481C28.8576 35.8749 28.1333 35.4016 27.8498 35.938C26.653 38.1148 21.6455 38.5565 21.0471 35.6856C20.9526 35.0861 20.1337 35.3385 20.2597 35.8749Z"
    stroke="#1B521E" stroke-width="1.5"/>
  <path
    d="M16.1028 30.1644C16.1658 30.1644 16.2288 30.196 16.2917 30.2591C16.3547 30.3222 16.4177 30.4168 16.4492 30.543C16.4807 30.6692 16.5437 30.7954 16.5437 30.9847C16.5752 31.1424 16.5752 31.3002 16.5752 31.4895C16.5752 31.6788 16.5752 31.8365 16.5437 31.9943C16.5122 32.152 16.4807 32.3097 16.4492 32.4359C16.4177 32.5621 16.3547 32.6568 16.2917 32.7199C16.2288 32.783 16.1658 32.8145 16.1028 32.8145C16.0398 32.8145 15.9768 32.783 15.9138 32.7199C15.8508 32.6568 15.7878 32.5621 15.7564 32.4359C15.7249 32.3097 15.6619 32.1836 15.6619 31.9943C15.6304 31.8365 15.6304 31.6788 15.6304 31.4895C15.6304 31.3002 15.6304 31.1424 15.6619 30.9847C15.6934 30.827 15.7249 30.6692 15.7564 30.543C15.7878 30.4168 15.8508 30.3222 15.9138 30.2591C15.9768 30.196 16.0398 30.1644 16.1028 30.1644Z"
    fill="black"/>
  <path
    d="M16.1028 30.1644C16.1658 30.1644 16.2288 30.196 16.2917 30.2591C16.3547 30.3222 16.4177 30.4168 16.4492 30.543C16.4807 30.6692 16.5437 30.7954 16.5437 30.9847C16.5752 31.1424 16.5752 31.3002 16.5752 31.4895C16.5752 31.6788 16.5752 31.8365 16.5437 31.9943C16.5122 32.152 16.4807 32.3097 16.4492 32.4359C16.4177 32.5621 16.3547 32.6568 16.2917 32.7199C16.2288 32.783 16.1658 32.8145 16.1028 32.8145C16.0398 32.8145 15.9768 32.783 15.9138 32.7199C15.8508 32.6568 15.7878 32.5621 15.7564 32.4359C15.7249 32.3097 15.6619 32.1836 15.6619 31.9943C15.6304 31.8365 15.6304 31.6788 15.6304 31.4895C15.6304 31.3002 15.6304 31.1424 15.6619 30.9847C15.6934 30.827 15.7249 30.6692 15.7564 30.543C15.7878 30.4168 15.8508 30.3222 15.9138 30.2591C15.9768 30.196 16.0398 30.1644 16.1028 30.1644Z"
    stroke="#1B521E" stroke-width="2.4197" stroke-linecap="round" stroke-linejoin="round"/>
  <path
    d="M16.1029 31.0163C16.1029 31.1109 16.0084 31.2687 16.0084 31.4264C16.0084 31.5842 16.0084 31.6788 16.1029 31.8366C16.1029 31.7419 16.1974 31.5842 16.1974 31.4264C16.1974 31.2687 16.1029 31.1109 16.1029 31.0163ZM16.1029 32.783C15.536 32.783 15.158 32.1836 15.158 31.4264C15.158 30.6693 15.536 30.0698 16.1029 30.0698C16.6698 30.0698 17.0477 30.6693 17.0477 31.4264C17.0477 32.1836 16.6698 32.783 16.1029 32.783Z"
    fill="black"/>
  <path
    d="M16.1029 31.0163C16.1029 31.1109 16.0084 31.2687 16.0084 31.4264C16.0084 31.5842 16.0084 31.6788 16.1029 31.8366C16.1029 31.7419 16.1974 31.5842 16.1974 31.4264C16.1974 31.2687 16.1029 31.1109 16.1029 31.0163ZM16.1029 32.783C15.536 32.783 15.158 32.1836 15.158 31.4264C15.158 30.6693 15.536 30.0698 16.1029 30.0698C16.6698 30.0698 17.0477 30.6693 17.0477 31.4264C17.0477 32.1836 16.6698 32.783 16.1029 32.783Z"
    stroke="#1B521E" stroke-width="2.4197" stroke-linecap="round" stroke-linejoin="round"/>
  <path
    d="M32.7314 30.1644C32.7944 30.1644 32.8574 30.196 32.9204 30.2591C32.9834 30.3222 33.0464 30.4168 33.0779 30.543C33.1094 30.6692 33.1723 30.7954 33.1723 30.9847C33.2038 31.1424 33.2038 31.3002 33.2038 31.4895C33.2038 31.6788 33.2038 31.8365 33.1723 31.9943C33.1408 32.152 33.1094 32.3097 33.0779 32.4359C33.0464 32.5621 32.9834 32.6568 32.9204 32.7199C32.8574 32.783 32.7944 32.8145 32.7314 32.8145C32.6684 32.8145 32.6055 32.783 32.5425 32.7199C32.4795 32.6568 32.4165 32.5621 32.385 32.4359C32.3535 32.3097 32.2905 32.1836 32.2905 31.9943C32.259 31.8365 32.259 31.6788 32.259 31.4895C32.259 31.3002 32.259 31.1424 32.2905 30.9847C32.322 30.827 32.3535 30.6692 32.385 30.543C32.4165 30.4168 32.4795 30.3222 32.5425 30.2591C32.6055 30.196 32.6684 30.1644 32.7314 30.1644Z"
    fill="black"/>
  <path
    d="M32.7314 30.1644C32.7944 30.1644 32.8574 30.196 32.9204 30.2591C32.9834 30.3222 33.0464 30.4168 33.0779 30.543C33.1094 30.6692 33.1723 30.7954 33.1723 30.9847C33.2038 31.1424 33.2038 31.3002 33.2038 31.4895C33.2038 31.6788 33.2038 31.8365 33.1723 31.9943C33.1408 32.152 33.1094 32.3097 33.0779 32.4359C33.0464 32.5621 32.9834 32.6568 32.9204 32.7199C32.8574 32.783 32.7944 32.8145 32.7314 32.8145C32.6684 32.8145 32.6055 32.783 32.5425 32.7199C32.4795 32.6568 32.4165 32.5621 32.385 32.4359C32.3535 32.3097 32.2905 32.1836 32.2905 31.9943C32.259 31.8365 32.259 31.6788 32.259 31.4895C32.259 31.3002 32.259 31.1424 32.2905 30.9847C32.322 30.827 32.3535 30.6692 32.385 30.543C32.4165 30.4168 32.4795 30.3222 32.5425 30.2591C32.6055 30.196 32.6684 30.1644 32.7314 30.1644Z"
    stroke="#1B521E" stroke-width="2.4197" stroke-linecap="round" stroke-linejoin="round"/>
  <path
    d="M32.7315 31.0163C32.7315 31.1109 32.637 31.2687 32.637 31.4264C32.637 31.5842 32.637 31.6788 32.7315 31.8366C32.7315 31.7419 32.826 31.5842 32.826 31.4264C32.826 31.2687 32.7315 31.1109 32.7315 31.0163ZM32.7315 32.783C32.1646 32.783 31.7867 32.1836 31.7867 31.4264C31.7867 30.6693 32.1646 30.0698 32.7315 30.0698C33.2984 30.0698 33.6763 30.6693 33.6763 31.4264C33.6763 32.1836 33.3299 32.783 32.7315 32.783Z"
    fill="black"/>
  <path
    d="M32.7315 31.0163C32.7315 31.1109 32.637 31.2687 32.637 31.4264C32.637 31.5842 32.637 31.6788 32.7315 31.8366C32.7315 31.7419 32.826 31.5842 32.826 31.4264C32.826 31.2687 32.7315 31.1109 32.7315 31.0163ZM32.7315 32.783C32.1646 32.783 31.7867 32.1836 31.7867 31.4264C31.7867 30.6693 32.1646 30.0698 32.7315 30.0698C33.2984 30.0698 33.6763 30.6693 33.6763 31.4264C33.6763 32.1836 33.3299 32.783 32.7315 32.783Z"
    stroke="#1B521E" stroke-width="2.4197" stroke-linecap="round" stroke-linejoin="round"/>
  <path
    d="M33.8655 33.8242C34.1489 33.7295 34.4324 33.698 34.7158 33.698C34.9993 33.698 35.2512 33.7295 35.5032 33.8242C35.7551 33.9188 35.9441 34.0135 36.1016 34.1712C36.259 34.329 36.385 34.4867 36.448 34.7076C36.511 34.8969 36.511 35.1177 36.4795 35.3385C36.4165 35.5594 36.322 35.7802 36.1645 35.9695C36.0071 36.1588 35.8181 36.3481 35.5977 36.5058C35.3772 36.6636 35.1252 36.7898 34.8418 36.8529C34.5583 36.9475 34.2749 36.9791 33.9915 36.9791C33.708 36.9791 33.4561 36.9475 33.2041 36.8529C32.9521 36.7582 32.7632 36.6636 32.6057 36.5058C32.4482 36.3481 32.3223 36.1904 32.2593 35.9695C32.1963 35.7802 32.1963 35.5594 32.2278 35.3385C32.2908 35.1177 32.3852 34.8969 32.5427 34.7076C32.7002 34.5183 32.8892 34.329 33.1096 34.1712C33.3301 34.045 33.582 33.9188 33.8655 33.8242Z"
    fill="#E56058"/>
  <path
    d="M15.0319 33.6979C15.3153 33.761 15.5988 33.8556 15.8507 33.9818C16.1027 34.108 16.3231 34.2658 16.5121 34.4551C16.7011 34.6444 16.827 34.8337 16.89 35.0545C16.953 35.2753 16.9845 35.4646 16.953 35.6855C16.9215 35.9063 16.827 36.0641 16.6696 36.2534C16.5121 36.4111 16.3231 36.5689 16.1027 36.6635C15.8822 36.7581 15.5988 36.8212 15.3153 36.8528C15.0319 36.8843 14.7484 36.8528 14.4335 36.8212C14.15 36.7581 13.8666 36.6635 13.6146 36.5373C13.3627 36.4111 13.1422 36.2534 12.9533 36.0641C12.7643 35.8748 12.6383 35.6855 12.5753 35.4646C12.5124 35.2438 12.4809 35.0545 12.5124 34.8337C12.5438 34.6128 12.6383 34.4551 12.7958 34.2658C12.9533 34.108 13.1422 33.9503 13.3627 33.8556C13.5832 33.761 13.8666 33.6979 14.15 33.6664C14.4335 33.6348 14.7484 33.6348 15.0319 33.6979Z"
    fill="#E56058"/>
  <path d="M31.944 26L33.4557 26.1262" stroke="#1B521E" stroke-width="3" stroke-linecap="round"/>
  <path d="M16.3859 26.4733L15.0002 26.6311" stroke="#1B521E" stroke-width="3" stroke-linecap="round"/>
</svg>
